<svg width="181" height="47" viewBox="0 0 181 47" fill="none" xmlns="http://www.w3.org/2000/svg">
<path d="M11.9211 11.712C13.1051 11.712 14.2251 11.84 15.2811 12.096C16.3371 12.352 17.2171 12.704 17.9211 13.152C18.7531 13.664 19.3931 14.32 19.8411 15.12C20.3211 15.888 20.5611 16.736 20.5611 17.664C20.5611 18.784 20.2091 19.712 19.5051 20.448C18.8011 21.152 17.8891 21.504 16.7691 21.504C15.6491 21.504 14.7531 21.184 14.0811 20.544C13.4091 19.904 13.0731 19.04 13.0731 17.952C13.0731 16.992 13.3771 16.16 13.9851 15.456C14.5931 14.752 15.3451 14.272 16.2411 14.016C15.9851 13.664 15.5851 13.392 15.0411 13.2C14.5291 12.976 13.9691 12.864 13.3611 12.864C11.4411 12.864 9.93706 13.92 8.84906 16.032C7.79306 18.112 7.26506 20.848 7.26506 24.24C7.26506 27.664 7.87306 30.128 9.08906 31.632C10.3051 33.136 11.8251 33.888 13.6491 33.888C14.7371 33.888 15.8251 33.6 16.9131 33.024C18.0331 32.448 19.0411 31.44 19.9371 30L20.7531 30.288C20.1131 32.368 18.9931 34.16 17.3931 35.664C15.7931 37.136 13.7291 37.872 11.2011 37.872C7.90506 37.872 5.21706 36.784 3.13706 34.608C1.05706 32.432 0.0170626 29.2 0.0170626 24.912C0.0170626 22.096 0.529063 19.696 1.55306 17.712C2.57706 15.728 3.98506 14.24 5.77706 13.248C7.56906 12.224 9.61706 11.712 11.9211 11.712Z" fill="#333333"/>
<path d="M29.5896 37.536C27.5416 37.536 26.0056 37.008 24.9816 35.952C23.9896 34.896 23.4936 33.504 23.4936 31.776C23.4936 30.336 23.8616 29.152 24.5976 28.224C25.3656 27.264 26.2776 26.528 27.3336 26.016C28.4216 25.504 29.7976 24.96 31.4616 24.384C33.2216 23.776 34.5016 23.232 35.3016 22.752C36.1336 22.24 36.5496 21.552 36.5496 20.688V16.944C36.5496 15.6 36.2296 14.56 35.5896 13.824C34.9816 13.056 34.0216 12.672 32.7096 12.672C31.1736 12.672 30.0056 13.056 29.2056 13.824C30.1016 14.144 30.7896 14.624 31.2696 15.264C31.7816 15.904 32.0376 16.656 32.0376 17.52C32.0376 18.608 31.6696 19.472 30.9336 20.112C30.1976 20.752 29.3016 21.072 28.2456 21.072C27.1256 21.072 26.2616 20.72 25.6536 20.016C25.0456 19.312 24.7416 18.432 24.7416 17.376C24.7416 16.48 24.9496 15.728 25.3656 15.12C25.8136 14.48 26.4856 13.888 27.3816 13.344C28.2456 12.832 29.3016 12.432 30.5496 12.144C31.8296 11.856 33.2216 11.712 34.7256 11.712C36.2936 11.712 37.6536 11.872 38.8056 12.192C39.9576 12.512 40.9176 13.056 41.6856 13.824C42.3896 14.528 42.8536 15.392 43.0776 16.416C43.3336 17.44 43.4616 18.832 43.4616 20.592V33.648C43.4616 34.416 43.5256 34.96 43.6536 35.28C43.8136 35.6 44.1016 35.76 44.5176 35.76C44.9976 35.76 45.5736 35.488 46.2456 34.944L46.7256 35.76C45.2856 36.944 43.5256 37.536 41.4456 37.536C39.6856 37.536 38.4536 37.184 37.7496 36.48C37.0456 35.776 36.6776 34.832 36.6456 33.648C35.0456 36.24 32.6936 37.536 29.5896 37.536ZM33.2856 34.464C34.5336 34.464 35.6216 33.808 36.5496 32.496V22.656C36.1656 23.296 35.3496 24 34.1016 24.768C32.8536 25.568 31.9096 26.368 31.2696 27.168C30.6296 27.968 30.3096 29.12 30.3096 30.624C30.3096 31.936 30.5816 32.912 31.1256 33.552C31.6696 34.16 32.3896 34.464 33.2856 34.464Z" fill="#333333"/>
<path d="M64.6093 11.712C66.0493 11.712 67.1373 12.144 67.8733 13.008C68.6093 13.872 68.9773 14.912 68.9773 16.128C68.9773 17.312 68.6253 18.288 67.9213 19.056C67.2493 19.792 66.3533 20.16 65.2333 20.16C64.1453 20.16 63.2813 19.888 62.6413 19.344C62.0013 18.768 61.6813 18.016 61.6813 17.088C61.6813 15.552 62.3853 14.304 63.7933 13.344C63.6653 13.312 63.4733 13.296 63.2173 13.296C62.8973 13.296 62.6413 13.328 62.4493 13.392C61.2333 13.584 60.1933 14.32 59.3293 15.6C58.4973 16.88 58.0813 18.192 58.0813 19.536V32.256C58.0813 33.728 58.4333 34.752 59.1373 35.328C59.8733 35.904 61.0253 36.192 62.5933 36.192V37.2C62.1453 37.2 61.7773 37.184 61.4893 37.152C58.2253 37.056 56.0493 37.008 54.9613 37.008C54.0973 37.008 52.1293 37.056 49.0573 37.152C48.8013 37.184 48.4813 37.2 48.0973 37.2V36.192C49.2493 36.192 50.0493 35.952 50.4973 35.472C50.9453 34.96 51.1693 34.048 51.1693 32.736V17.616C51.1693 16.144 50.9453 15.072 50.4973 14.4C50.0493 13.728 49.2493 13.392 48.0973 13.392V12.384C49.1213 12.48 50.1133 12.528 51.0733 12.528C53.9213 12.528 56.2573 12.304 58.0813 11.856V16.32C58.6893 14.944 59.5693 13.84 60.7213 13.008C61.8733 12.144 63.1693 11.712 64.6093 11.712Z" fill="#333333"/>
<path d="M87.0156 11.712C88.4556 11.712 89.5436 12.144 90.2796 13.008C91.0156 13.872 91.3836 14.912 91.3836 16.128C91.3836 17.312 91.0316 18.288 90.3276 19.056C89.6556 19.792 88.7596 20.16 87.6396 20.16C86.5516 20.16 85.6876 19.888 85.0476 19.344C84.4076 18.768 84.0876 18.016 84.0876 17.088C84.0876 15.552 84.7916 14.304 86.1996 13.344C86.0716 13.312 85.8796 13.296 85.6236 13.296C85.3036 13.296 85.0476 13.328 84.8556 13.392C83.6396 13.584 82.5996 14.32 81.7356 15.6C80.9036 16.88 80.4876 18.192 80.4876 19.536V32.256C80.4876 33.728 80.8396 34.752 81.5436 35.328C82.2796 35.904 83.4316 36.192 84.9996 36.192V37.2C84.5516 37.2 84.1836 37.184 83.8956 37.152C80.6316 37.056 78.4556 37.008 77.3676 37.008C76.5036 37.008 74.5356 37.056 71.4636 37.152C71.2076 37.184 70.8876 37.2 70.5036 37.2V36.192C71.6556 36.192 72.4556 35.952 72.9036 35.472C73.3516 34.96 73.5756 34.048 73.5756 32.736V17.616C73.5756 16.144 73.3516 15.072 72.9036 14.4C72.4556 13.728 71.6556 13.392 70.5036 13.392V12.384C71.5276 12.48 72.5196 12.528 73.4796 12.528C76.3276 12.528 78.6636 12.304 80.4876 11.856V16.32C81.0956 14.944 81.9756 13.84 83.1276 13.008C84.2796 12.144 85.5756 11.712 87.0156 11.712Z" fill="#333333"/>
<path d="M99.1498 0C100.494 0 101.55 0.336 102.318 1.008C103.118 1.648 103.518 2.544 103.518 3.696C103.518 4.848 103.118 5.76 102.318 6.432C101.55 7.072 100.494 7.392 99.1498 7.392C97.8058 7.392 96.7338 7.072 95.9338 6.432C95.1658 5.76 94.7818 4.848 94.7818 3.696C94.7818 2.544 95.1658 1.648 95.9338 1.008C96.7338 0.336 97.8058 0 99.1498 0ZM102.894 32.736C102.894 34.048 103.118 34.96 103.566 35.472C104.046 35.952 104.846 36.192 105.966 36.192V37.2C102.766 37.072 100.638 37.008 99.5818 37.008C98.5898 37.008 96.3658 37.072 92.9098 37.2V36.192C94.0618 36.192 94.8618 35.952 95.3098 35.472C95.7578 34.96 95.9818 34.048 95.9818 32.736V17.616C95.9818 16.144 95.7578 15.072 95.3098 14.4C94.8618 13.728 94.0618 13.392 92.9098 13.392V12.384C93.9338 12.48 94.9258 12.528 95.8858 12.528C98.7338 12.528 101.07 12.304 102.894 11.856V32.736Z" fill="#333333"/>
<path d="M114.386 37.536C112.338 37.536 110.802 37.008 109.778 35.952C108.786 34.896 108.29 33.504 108.29 31.776C108.29 30.336 108.658 29.152 109.394 28.224C110.162 27.264 111.074 26.528 112.13 26.016C113.218 25.504 114.594 24.96 116.258 24.384C118.018 23.776 119.298 23.232 120.098 22.752C120.93 22.24 121.346 21.552 121.346 20.688V16.944C121.346 15.6 121.026 14.56 120.386 13.824C119.778 13.056 118.818 12.672 117.506 12.672C115.97 12.672 114.802 13.056 114.002 13.824C114.898 14.144 115.586 14.624 116.066 15.264C116.578 15.904 116.834 16.656 116.834 17.52C116.834 18.608 116.466 19.472 115.73 20.112C114.994 20.752 114.098 21.072 113.042 21.072C111.922 21.072 111.058 20.72 110.45 20.016C109.842 19.312 109.538 18.432 109.538 17.376C109.538 16.48 109.746 15.728 110.162 15.12C110.61 14.48 111.282 13.888 112.178 13.344C113.042 12.832 114.098 12.432 115.346 12.144C116.626 11.856 118.018 11.712 119.522 11.712C121.09 11.712 122.45 11.872 123.602 12.192C124.754 12.512 125.714 13.056 126.482 13.824C127.186 14.528 127.65 15.392 127.874 16.416C128.13 17.44 128.258 18.832 128.258 20.592V33.648C128.258 34.416 128.322 34.96 128.45 35.28C128.61 35.6 128.898 35.76 129.314 35.76C129.794 35.76 130.37 35.488 131.042 34.944L131.522 35.76C130.082 36.944 128.322 37.536 126.242 37.536C124.482 37.536 123.25 37.184 122.546 36.48C121.842 35.776 121.474 34.832 121.442 33.648C119.842 36.24 117.49 37.536 114.386 37.536ZM118.082 34.464C119.33 34.464 120.418 33.808 121.346 32.496V22.656C120.962 23.296 120.146 24 118.898 24.768C117.65 25.568 116.706 26.368 116.066 27.168C115.426 27.968 115.106 29.12 115.106 30.624C115.106 31.936 115.378 32.912 115.922 33.552C116.466 34.16 117.186 34.464 118.082 34.464Z" fill="#333333"/>
<path d="M155.646 16.992C155.006 16.992 154.462 16.784 154.014 16.368C153.566 15.92 153.342 15.296 153.342 14.496C153.342 13.728 153.534 12.944 153.918 12.144C153.15 12.464 152.51 12.832 151.998 13.248C151.518 13.632 151.102 14.128 150.75 14.736C151.742 15.92 152.238 17.456 152.238 19.344C152.238 21.872 151.358 23.776 149.598 25.056C147.87 26.336 145.566 26.976 142.686 26.976H141.822C140.51 27.744 139.854 28.592 139.854 29.52C139.854 30.544 140.494 31.056 141.774 31.056H147.006C149.822 31.056 152.062 31.584 153.726 32.64C155.422 33.664 156.27 35.248 156.27 37.392C156.27 39.024 155.742 40.496 154.686 41.808C153.662 43.152 152.094 44.224 149.982 45.024C147.87 45.824 145.278 46.224 142.206 46.224C139.102 46.224 136.606 45.824 134.718 45.024C132.862 44.256 131.934 43.136 131.934 41.664C131.934 40.672 132.382 39.776 133.278 38.976C134.174 38.208 135.502 37.6 137.262 37.152L137.694 37.92C136.542 38.88 135.966 39.984 135.966 41.232C135.966 42.576 136.574 43.6 137.79 44.304C139.006 45.04 140.686 45.408 142.83 45.408C145.07 45.408 146.878 44.96 148.254 44.064C149.662 43.168 150.366 41.904 150.366 40.272C150.366 39.216 149.966 38.384 149.166 37.776C148.398 37.168 147.038 36.864 145.086 36.864H142.11C140.062 36.864 138.462 36.528 137.31 35.856C136.158 35.152 135.582 34.096 135.582 32.688C135.582 31.504 135.998 30.448 136.83 29.52C137.662 28.592 138.926 27.696 140.622 26.832C138.318 26.544 136.494 25.776 135.15 24.528C133.806 23.28 133.134 21.552 133.134 19.344C133.134 16.816 133.998 14.912 135.726 13.632C137.486 12.352 139.806 11.712 142.686 11.712C145.886 11.712 148.334 12.464 150.03 13.968C150.638 13.104 151.39 12.416 152.286 11.904C153.182 11.392 154.094 11.136 155.022 11.136C155.982 11.136 156.734 11.424 157.278 12C157.854 12.544 158.142 13.264 158.142 14.16C158.142 15.056 157.886 15.76 157.374 16.272C156.894 16.752 156.318 16.992 155.646 16.992ZM142.686 26.112C143.582 26.112 144.254 25.6 144.702 24.576C145.182 23.552 145.422 21.808 145.422 19.344C145.422 16.88 145.182 15.136 144.702 14.112C144.254 13.088 143.582 12.576 142.686 12.576C141.79 12.576 141.102 13.088 140.622 14.112C140.174 15.136 139.95 16.88 139.95 19.344C139.95 21.808 140.174 23.552 140.622 24.576C141.102 25.6 141.79 26.112 142.686 26.112Z" fill="#333333"/>
<path d="M172.787 33.936C175.411 33.936 177.523 32.656 179.123 30.096L179.987 30.384C179.347 32.464 178.195 34.24 176.531 35.712C174.899 37.152 172.851 37.872 170.387 37.872C166.995 37.872 164.291 36.8 162.275 34.656C160.291 32.48 159.299 29.28 159.299 25.056C159.299 20.736 160.371 17.44 162.515 15.168C164.659 12.864 167.507 11.712 171.059 11.712C177.075 11.712 180.083 15.264 180.083 22.368H166.595C166.563 22.848 166.547 23.6 166.547 24.624C166.547 26.736 166.835 28.496 167.411 29.904C168.019 31.312 168.787 32.336 169.715 32.976C170.675 33.616 171.699 33.936 172.787 33.936ZM170.771 12.72C169.619 12.72 168.659 13.44 167.891 14.88C167.155 16.288 166.691 18.48 166.499 21.456H174.035C174.099 18.928 173.843 16.848 173.267 15.216C172.723 13.552 171.891 12.72 170.771 12.72Z" fill="#333333"/>
<path d="M160 40.2H180V43.2H160V40.2Z" fill="#333333"/>
<path d="M0 40.2H129V43.2H0V40.2Z" fill="#333333"/>
</svg>
